<svg width="119" height="50" viewBox="0 0 119 50" fill="none" xmlns="http://www.w3.org/2000/svg">
<g clip-path="url(#clip0)">
<path d="M42.9058 45.4667L40.3683 16.7167C40.1777 14.551 38.3933 12.9167 36.2183 12.9167C35.7186 12.9167 35.3121 13.3229 35.3121 13.8229V18.3052C35.3121 18.7489 34.9767 19.1364 34.534 19.1646C34.0485 19.1958 33.6454 18.8114 33.6454 18.3333V8.64582C33.6454 3.87811 29.7673 -1.52588e-05 24.9996 -1.52588e-05C20.2319 -1.52588e-05 16.3537 3.87811 16.3537 8.64582V12.9167H13.7808C11.6058 12.9167 9.82146 14.551 9.63083 16.7167L7.09333 45.4667C6.87979 47.8963 8.79573 50 11.2444 50H38.7548C41.2038 50 43.1194 47.896 42.9058 45.4667ZM20.2079 44.4792H14.1662C13.706 44.4792 13.3329 44.106 13.3329 43.6458C13.3329 43.1856 13.706 42.8125 14.1662 42.8125H20.2079C20.6681 42.8125 21.0412 43.1856 21.0412 43.6458C21.0412 44.106 20.6681 44.4792 20.2079 44.4792ZM20.2079 40.3125H14.1662C13.706 40.3125 13.3329 39.9394 13.3329 39.4792C13.3329 39.0189 13.706 38.6458 14.1662 38.6458H20.2079C20.6681 38.6458 21.0412 39.0189 21.0412 39.4792C21.0412 39.9394 20.6681 40.3125 20.2079 40.3125ZM31.9787 12.9167H20.5933C20.0933 12.9167 19.6871 13.3229 19.6871 13.8229V18.3052C19.6871 18.7489 19.3517 19.1364 18.909 19.1646C18.4235 19.1958 18.0204 18.8114 18.0204 18.3333V8.64582C18.0204 4.7979 21.1517 1.66665 24.9996 1.66665C28.8475 1.66665 31.9787 4.7979 31.9787 8.64582V12.9167Z" fill="#457373"/>
</g>
<path d="M56.888 38H61.032V22.488H67.024V18.764H50.896V22.488H56.888V38ZM79.2788 23.524V32.176L79.2508 32.092C79.2508 33.66 77.9348 34.892 76.2268 34.892C74.6028 34.892 73.4828 33.66 73.4828 31.868V23.524H69.5348V32.736C69.5348 36.012 71.7748 38.336 74.9108 38.336C76.7868 38.336 78.4108 37.496 79.2788 36.18V38H83.3668V23.524H79.2788ZM100.958 23.524H96.254L90.878 29.768V18.428H86.79V38H90.878V34.444L92.614 32.568L96.198 38H100.902L95.33 29.936L100.958 23.524ZM112.474 23.524V32.176L112.446 32.092C112.446 33.66 111.13 34.892 109.422 34.892C107.798 34.892 106.678 33.66 106.678 31.868V23.524H102.73V32.736C102.73 36.012 104.97 38.336 108.106 38.336C109.982 38.336 111.606 37.496 112.474 36.18V38H116.562V23.524H112.474Z" fill="#457373"/>
<defs>
<clipPath id="clip0">
<rect width="50" height="50" fill="white"/>
</clipPath>
</defs>
</svg>
